<?xml version="1.0" encoding="utf-8"?>
<!-- Generator: Adobe Illustrator 19.2.1, SVG Export Plug-In . SVG Version: 6.00 Build 0)  -->
<svg version="1.1" id="Layer_1" xmlns="http://www.w3.org/2000/svg" xmlns:xlink="http://www.w3.org/1999/xlink" x="0px" y="0px"
	 viewBox="0 0 171.2 76.6" style="enable-background:new 0 0 171.2 76.6;" xml:space="preserve">
<style type="text/css">
	.st0{fill:#270F35;}
	.st1{fill:#7125A9;stroke:#7125A9;stroke-width:0.3;stroke-linecap:round;stroke-linejoin:round;}
	.st2{fill:#FFFFFF;}
</style>
<title>lecavalier-logo</title>
<rect y="29" class="st0" width="171.2" height="19"/>
<path class="st1" d="M3.4,5.1C3.5,4.3,3.2,3.6,2.7,3C2.1,2.5,1.3,2.3,0.6,2.3c-0.1,0-0.2,0-0.3-0.1C0.2,2.2,0.1,2.1,0.2,2
	c0-0.1,0.1-0.2,0.2-0.3c0.1-0.1,0.2-0.1,0.4-0.1h0.1h2.5c0.6,0,1.1,0,1.7-0.1l1.6-0.1l1.6-0.1c0.6,0,1.1-0.1,1.7-0.1
	c2.7,0,5.3,0.7,7.6,2.1c2.2,1.4,3.4,3.7,3.4,6.8c0.1,2.8-1,5.5-3,7.5c-2,2-4.7,3.1-7.4,3H9.1H7.9l-1.2-0.1H5.5H4.6l-0.9,0.1
	l-0.9,0.1H2c-0.1,0-0.2,0-0.3-0.1c-0.1-0.1-0.1-0.2-0.1-0.3c0-0.1,0-0.2,0.1-0.2c0.1-0.1,0.2-0.1,0.2-0.1l0.3-0.1
	c0.1,0,0.2-0.1,0.3-0.1C2.8,19.5,3,19.3,3.1,19c0.2-0.5,0.3-1.1,0.3-1.7L3.4,5.1L3.4,5.1z M6.7,16.1c-0.1,1,0.2,2,0.8,2.8
	c0.8,0.5,1.8,0.8,2.8,0.7c2.1,0.2,4.2-0.8,5.4-2.6c1.1-1.7,1.7-3.8,1.7-5.9c0.1-2.3-0.8-4.6-2.4-6.3C13.4,3,11.1,2.1,8.8,2.2
	C8.2,2.2,7.6,2.3,7.1,2.6C6.8,2.9,6.7,3.3,6.7,3.8V16.1L6.7,16.1z"/>
<path class="st1" d="M27.2,16.9c0,0.7,0.1,1.4,0.4,2c0.3,0.6,1,1,1.7,1.1c0.1,0,0.2,0,0.3,0.1c0.1,0,0.1,0.2,0.1,0.3
	c0,0.1,0,0.1,0,0.2c0,0.1-0.1,0.1-0.2,0.1h-0.8l-0.9-0.1l-1-0.1c-0.3,0-0.6,0-1,0h-0.6l-0.6,0.1l-0.7,0.1h-0.6
	c-0.2,0-0.3-0.2-0.3-0.3l0,0c0-0.1,0-0.1,0.1-0.2c0.1-0.1,0.1-0.1,0.2-0.1l0.2-0.1l0.2-0.2c0.2-0.2,0.4-0.4,0.5-0.6
	c0.2-0.4,0.3-0.8,0.3-1.2v-0.3c0,0,0-0.1,0-0.1c0-0.1,0-0.1,0-0.2v-5c0-0.4-0.1-0.9-0.2-1.3c-0.3-0.3-0.7-0.5-1.1-0.5
	c-0.1,0-0.2,0-0.2-0.1c-0.1,0-0.1-0.1-0.1-0.2c0-0.1,0-0.2,0.1-0.3c0.1-0.1,0.2-0.1,0.2-0.1c0.5-0.1,1-0.2,1.4-0.3
	c0.5-0.2,0.9-0.3,1.4-0.6l0.6-0.3l0.6-0.3l0,0c0.1,0,0.1,0,0.2,0.1c0,0.1,0.1,0.1,0.1,0.2c0,0.2,0,0.3,0,0.5c0,0.2,0,0.3,0,0.5
	l-0.1,0.5c0,0.2,0,0.3,0,0.5v0.1c0,0.1,0,0.1,0.1,0.2c0,0,0.1,0.1,0.1,0.1l0,0c0.2-0.1,0.3-0.2,0.4-0.4l0.7-0.9L29,9.4L29.4,9
	c0.1-0.1,0.3-0.2,0.5-0.3c0.1-0.1,0.3-0.1,0.4-0.1l0,0c0.2,0,0.3,0.1,0.5,0.1C31,8.8,31.2,8.9,31.4,9l0.3,0.2L32,9.5
	c0.2,0.1,0.3,0.3,0.4,0.4c0.1,0.1,0.2,0.2,0.2,0.3c0,0.1-0.1,0.3-0.1,0.4c-0.1,0.2-0.2,0.4-0.3,0.6c-0.1,0.2-0.2,0.3-0.3,0.5
	c-0.1,0.1-0.2,0.3-0.3,0.4c-0.1,0.1-0.1,0.1-0.2,0.1c-0.1,0-0.1,0.1-0.2,0.1c-0.2,0-0.3-0.1-0.4-0.2c-0.2-0.1-0.4-0.3-0.5-0.4
	c-0.2-0.2-0.4-0.3-0.6-0.4c-0.2-0.1-0.5-0.2-0.8-0.2c-0.5-0.1-1,0.2-1.3,0.7c-0.2,0.5-0.4,1-0.4,1.5L27.2,16.9L27.2,16.9z"/>
<path class="st1" d="M31.8,18c0.2-0.2,0.4-0.4,0.6-0.6l0.2-0.2l0.2-0.2c0.2-0.2,0.5-0.4,0.8-0.6c0.1-0.1,0.3-0.2,0.4-0.3
	c0.2,0,0.3,0.1,0.5,0.2c0.2,0.2,0.5,0.3,0.7,0.6l0.2,0.2l0.3,0.2c0.2,0.2,0.4,0.4,0.6,0.7c0.1,0.1,0.2,0.3,0.2,0.5
	c0,0.1,0,0.3-0.1,0.4c-0.1,0.1-0.2,0.2-0.3,0.3L36,19.3l-0.1,0.1c-0.1,0.1-0.2,0.2-0.3,0.3c-0.1,0.1-0.2,0.3-0.4,0.4L35,20.3
	l-0.2,0.2c-0.1,0.1-0.2,0.2-0.4,0.3c-0.1,0.1-0.2,0.1-0.4,0.1c-0.2,0-0.4-0.1-0.5-0.2c-0.2-0.2-0.5-0.3-0.7-0.5l-0.3-0.2
	c-0.1-0.1-0.2-0.2-0.3-0.3c-0.2-0.2-0.4-0.5-0.5-0.6c-0.1-0.1-0.2-0.3-0.2-0.5C31.6,18.3,31.6,18.2,31.8,18z"/>
<path class="st1" d="M53.1,15.4v1.6c0,0.2,0,0.4,0,0.6c0,0.3,0.1,0.6,0.2,0.9c0,0.2,0.1,0.4,0.3,0.6c0.1,0.1,0.3,0.2,0.5,0.2
	c0.2,0,0.4,0,0.6,0c1.5,0,2.9-0.2,4.3-0.7c1.4-0.6,2.5-1.5,3.3-2.8l0.1-0.1c0,0,0.1-0.1,0.1-0.1c0.1,0,0.1,0,0.2,0.1
	c0,0.1,0.1,0.1,0.1,0.2c0,0,0,0,0,0.1c0,0,0,0,0,0.1c0,1.1-0.4,2.3-1.1,3.1c-0.7,0.9-1.8,1.5-3,1.4h-1.5l-1.5-0.1h-0.5h-0.4
	c-0.3,0-0.7-0.1-1-0.1h-1c-0.7,0-1.4,0-2.1,0.1c-0.7,0-1.4,0.1-2.1,0.2h-0.1h-0.3c-0.1,0-0.2-0.1-0.2-0.2c0-0.1,0-0.2,0.1-0.3
	c0.1-0.1,0.2-0.1,0.3-0.1c0.5-0.1,1-0.5,1.2-1c0.2-0.5,0.3-1,0.3-1.6c0-0.1,0-0.3,0-0.4V4.9c0-0.6-0.1-1.2-0.4-1.7
	c-0.3-0.5-0.9-0.8-1.5-0.9h-0.2h-0.4c-0.2,0-0.4-0.1-0.5-0.2c-0.2-0.1-0.3-0.2-0.2-0.4c0-0.1,0-0.2,0.1-0.3c0.1-0.1,0.1-0.1,0.2-0.2
	h0.7l0.7,0.1l0.7,0.1c0.2,0,0.5,0,0.7,0c0.4,0,0.8,0,1.1,0l1.1-0.1l1.1-0.1c0.4,0,0.8,0,1.1,0h0.3c0.1,0,0.2,0.1,0.3,0.1
	c0.1,0,0.2,0.1,0.2,0.2l0,0c0,0.1-0.1,0.2-0.2,0.3c-0.1,0-0.2,0.1-0.3,0.1h-0.1c-0.4,0-0.8,0.2-1,0.6c-0.2,0.4-0.3,0.8-0.3,1.2
	c0,0.1,0,0.3,0,0.4L53.1,15.4L53.1,15.4z"/>
<path class="st1" d="M64.3,14.8c0-0.1,0-0.2,0-0.3c0.1-1.4,0.7-2.8,1.6-3.9c0.9-1.2,2.2-1.9,3.7-1.9H70h0.4c1.2,0.2,2.2,0.7,3.1,1.5
	c0.9,0.7,1.4,1.8,1.4,3c0,0.2-0.1,0.3-0.2,0.4c-0.1,0.1-0.3,0.1-0.4,0.1h-3.2h-1.6h-1.6c-0.1,0-0.3,0-0.4,0.1
	c-0.1,0.1-0.2,0.2-0.2,0.4c0,0.1,0,0.2,0,0.3s0,0.2,0,0.3c0.1,1.1,0.6,2.1,1.2,2.9c0.7,0.9,1.7,1.4,2.8,1.3h0.5c0.1,0,0.3,0,0.4-0.1
	c0.3-0.1,0.7-0.2,1-0.3c0.3-0.1,0.6-0.3,0.9-0.6l0.1-0.1l0.1-0.2l0.2-0.2c0.1,0,0.2,0,0.3,0.1c0.1,0,0.2,0,0.2,0.1
	c0.1,0.1,0.1,0.1,0.1,0.2c0,0.1,0,0.2-0.1,0.3l-0.2,0.3c-0.1,0.1-0.1,0.2-0.2,0.2l-0.2,0.2L74,19.2l-0.3,0.2
	c-0.5,0.5-1.1,0.8-1.8,1.1c-0.7,0.3-1.4,0.4-2.1,0.4c-1.5,0.1-3-0.6-4-1.7c-1-1.1-1.5-2.6-1.5-4.1L64.3,14.8L64.3,14.8z M68,10.1
	c-0.4,0.4-0.6,1-0.8,1.5c0,0.2-0.1,0.3-0.1,0.5c0,0.1,0,0.3,0,0.4c0,0.2,0.1,0.4,0.2,0.5c0.2,0.1,0.4,0.1,0.6,0.1h2.6
	c0.4,0,0.8-0.1,1.1-0.2c0.3,0,0.5-0.3,0.5-0.6v-0.2c0,0,0-0.1,0-0.1c-0.1-0.7-0.3-1.3-0.8-1.8c-0.4-0.5-1.1-0.8-1.8-0.8
	C68.9,9.4,68.3,9.6,68,10.1L68,10.1z"/>
<path class="st1" d="M79.3,4.2C81,2.1,83.6,1,86.3,1c0.8,0,1.6,0.1,2.3,0.3c0.6,0.2,1.2,0.4,1.7,0.6c0.4,0.2,0.8,0.4,1.2,0.6
	c0.2,0.1,0.4,0.2,0.7,0.3c0.1,0,0.2,0,0.3,0c0.1,0,0.2-0.1,0.2-0.2c0,0,0,0,0-0.1c0,0,0,0,0-0.1l0.2-0.3c0.1-0.1,0.1-0.1,0.2-0.2
	l0,0l0,0h0.1c0.1,0,0.2,0.1,0.3,0.2c0.1,0.1,0.1,0.2,0.1,0.3c0,0.1,0,0.1,0,0.2V4c0,0.4,0,0.8,0,1.2c0,0.3,0.1,0.6,0.1,0.9
	c0,0.2,0,0.5,0.1,0.7c0,0.2,0.1,0.4,0.1,0.6v0.4c0,0.1,0,0.2-0.1,0.3c-0.1,0.1-0.2,0.2-0.3,0.2c-0.1,0-0.2,0-0.2-0.1
	c0-0.1-0.1-0.2-0.1-0.2c-0.1-0.3-0.1-0.5-0.3-0.8c-0.1-0.3-0.3-0.6-0.5-0.9C92.2,6.2,92.1,6,92,5.8c-0.1-0.2-0.2-0.3-0.4-0.5
	c-0.1-0.2-0.2-0.4-0.3-0.6l-0.5-0.5c-0.7-0.7-1.4-1.2-2.3-1.6C87.7,2.2,86.8,2,85.8,2c-1.6-0.1-3.1,0.7-4,1.9
	c-0.9,1.2-1.5,2.7-1.8,4.2C80,8.4,79.9,8.7,79.9,9c0,0.3,0,0.6,0,0.8v0.3c0,0.1,0,0.2,0,0.3c0,1.1,0.2,2.2,0.6,3.3
	c0.4,1.1,0.9,2,1.6,2.9c0.6,0.7,1.4,1.3,2.2,1.8c0.8,0.5,1.7,0.7,2.7,0.7c1.3,0,2.5-0.3,3.6-1c1.1-0.6,2-1.4,2.8-2.4l0,0l0,0
	l0.1-0.1c0.1,0,0.1,0,0.2,0c0.1,0,0.1,0,0.2,0.1c0.1,0,0.1,0.1,0.1,0.2V16c0,0.1,0,0.3-0.1,0.4c-0.1,0.1-0.1,0.2-0.2,0.4
	c-0.1,0.1-0.1,0.2-0.2,0.3l-0.2,0.2L93,17.7L92.7,18c-0.9,0.9-2,1.7-3.1,2.2c-1.2,0.5-2.4,0.8-3.7,0.8c-2.5,0.1-5-0.9-6.7-2.7
	c-1.7-1.8-2.6-4.3-2.6-6.8C76.5,8.8,77.5,6.2,79.3,4.2z"/>
<path class="st1" d="M102.1,13.3c0-0.2,0.1-0.4,0.1-0.6c0-0.1,0-0.2,0-0.3s0-0.2,0-0.3c-0.1-0.6-0.3-1.3-0.7-1.8
	c-0.4-0.5-1-0.8-1.7-0.8c-0.3,0-0.7,0.1-0.9,0.3c-0.3,0.2-0.4,0.5-0.4,0.9c0,0.1,0,0.1,0,0.2c0,0,0,0.1,0,0.1c0,0.1,0,0.1,0,0.2
	c0,0.1,0,0.1,0,0.2c0,0.3-0.1,0.5-0.4,0.6c-0.3,0.1-0.5,0.2-0.8,0.3h-0.5h-0.5c-0.1,0-0.2-0.1-0.3-0.2c-0.1-0.1-0.1-0.2-0.2-0.3
	l0.2-0.7c0.1-0.6,0.5-1.2,1-1.5c0.6-0.4,1.2-0.6,1.9-0.8c0.3-0.1,0.5-0.1,0.8-0.1c0.2,0,0.5,0,0.8,0h0.7l0.7,0.1
	c0.5,0.1,1,0.2,1.4,0.4c0.4,0.2,0.8,0.5,1.1,0.9c0.3,0.3,0.5,0.8,0.5,1.2c0.1,0.5,0.1,0.9,0.1,1.4c0,0.4,0,0.9,0,1.3s0,0.9,0,1.3
	l-0.1,1.3c0,0.4,0,0.9,0,1.3c0,0.3,0.1,0.7,0.2,1c0.2,0.3,0.5,0.4,0.9,0.4c0.1,0,0.2,0,0.3,0l0.2-0.1l0.2-0.1h0.2c0,0,0.1,0,0.1,0.1
	c0,0,0.1,0.1,0.1,0.1l0,0c0,0.1-0.1,0.2-0.1,0.3c-0.1,0.1-0.2,0.2-0.3,0.3c-0.2,0.1-0.3,0.2-0.5,0.3c-0.2,0.1-0.4,0.2-0.6,0.3
	c-0.2,0.1-0.4,0.1-0.6,0.2c-0.2,0-0.4,0.1-0.5,0.1c-0.5,0-0.9-0.2-1.2-0.5c-0.3-0.3-0.6-0.7-0.8-1.1l-0.1,0.1l-0.1,0.1
	c-0.6,0.4-1.3,0.7-1.9,1c-0.7,0.3-1.4,0.5-2.1,0.5c-0.7,0-1.4-0.2-1.9-0.7c-0.5-0.5-0.7-1.2-0.7-1.9c-0.1-1.1,0.4-2.2,1.4-2.8
	c1-0.6,2-1,3.1-1.2L101,14l1-0.2L102.1,13.3z M98.4,17.7L98.4,17.7c0,0.5,0.2,0.9,0.4,1.2c0.2,0.3,0.6,0.5,1,0.5
	c0.7,0.1,1.4-0.1,1.9-0.6c0.3-0.6,0.5-1.2,0.5-1.9v-0.4c0-0.2,0-0.3,0-0.5v-1c0-0.1,0-0.2-0.1-0.3c-0.1-0.1-0.2-0.1-0.3-0.1h-0.2
	c-0.8,0-1.5,0.3-2.1,0.9c-0.6,0.5-1,1.2-1,2L98.4,17.7L98.4,17.7z"/>
<path class="st1" d="M113.3,16l0.1,0.2l0.1,0.2c0.1,0.1,0.1,0.2,0.2,0.3c0,0.1,0.1,0.1,0.2,0.1c0.3-0.1,0.5-0.4,0.6-0.6
	c0.3-0.4,0.6-0.9,0.9-1.5l0.2-0.5c0.1-0.2,0.2-0.3,0.2-0.5c0.3-0.6,0.5-1.2,0.8-1.8c0.2-0.4,0.3-0.8,0.3-1.2l0,0
	c0-0.3-0.2-0.7-0.5-0.9c-0.3-0.2-0.6-0.3-1-0.3c-0.1,0-0.2,0-0.3-0.1c0-0.1-0.1-0.2-0.1-0.3c0-0.1,0.1-0.1,0.1-0.2
	c0.1,0,0.1,0,0.2,0h0.8h0.8h0.5h0.5h0.7c0.2,0,0.5,0,0.7-0.1c0.1,0,0.2,0,0.2,0.1c0,0.1,0.1,0.1,0.1,0.2c0,0.1,0,0.2-0.1,0.2
	c-0.1,0.1-0.1,0.1-0.2,0.2h-0.1c-0.2,0.1-0.4,0.2-0.6,0.4c-0.1,0.2-0.3,0.4-0.3,0.6L118,11l-0.2,0.5l-0.3,0.7l-0.3,0.7
	c-0.6,1.2-1.2,2.4-1.8,3.5c-0.6,1.2-1.2,2.3-1.9,3.5l-0.1,0.2l-0.1,0.2c-0.1,0.1-0.1,0.2-0.2,0.3c-0.1,0.1-0.2,0.2-0.3,0.2
	c-0.1,0-0.3,0-0.3-0.1c-0.1-0.1-0.1-0.2-0.2-0.3l-0.1-0.2c0,0,0-0.1-0.1-0.1l-3.5-7.7l-0.2-0.5c-0.1-0.1-0.1-0.3-0.2-0.4
	c-0.1-0.1-0.2-0.3-0.2-0.4s-0.1-0.3-0.2-0.4c-0.1-0.3-0.3-0.6-0.6-0.9c-0.1-0.1-0.3-0.2-0.5-0.2c-0.1,0-0.1,0-0.2-0.1
	c-0.1-0.1-0.1-0.2-0.1-0.3c0-0.1,0-0.1,0.1-0.2c0.1,0,0.1-0.1,0.2-0.1h0.1h0.4h0.4l0.5,0.1h0.5h0.9l0.9-0.1h0.9h0.9h0.3h0.2
	c0,0,0.1,0.1,0.1,0.1l0.1,0.2v0.1c0,0.1-0.1,0.2-0.1,0.2c-0.1,0-0.2,0.1-0.3,0.1L112,9.6l-0.3,0.1c-0.2,0.1-0.4,0.1-0.6,0.3
	c-0.2,0.1-0.3,0.3-0.3,0.6c0,0.1,0,0.1,0,0.2c0,0.1,0,0.1,0,0.2c0,0.1,0.1,0.2,0.1,0.3s0.1,0.2,0.1,0.3l0.1,0.1l0.1,0.1L113.3,16z"
	/>
<path class="st1" d="M126.8,13.3c0-0.2,0.1-0.4,0.1-0.6c0-0.1,0-0.2,0-0.3s0-0.2,0-0.3c-0.1-0.6-0.3-1.3-0.7-1.8
	c-0.4-0.5-1-0.8-1.7-0.8c-0.3,0-0.7,0.1-0.9,0.3c-0.3,0.2-0.4,0.5-0.4,0.9c0,0.1,0,0.1,0,0.2c0,0,0,0.1,0,0.1c0,0.1,0,0.1,0,0.2
	c0,0.1,0,0.1,0,0.2c0,0.3-0.1,0.5-0.4,0.6c-0.3,0.1-0.5,0.2-0.8,0.3h-0.5h-0.5c-0.1,0-0.2-0.1-0.3-0.2c-0.1-0.1-0.1-0.2-0.1-0.3
	l0.2-0.7c0.1-0.6,0.5-1.2,1-1.5c0.6-0.4,1.2-0.6,1.9-0.8c0.3-0.1,0.5-0.1,0.8-0.1c0.2,0,0.5,0,0.8,0h0.7l0.7,0.1
	c0.5,0.1,1,0.2,1.4,0.4c0.4,0.2,0.8,0.5,1.1,0.9c0.3,0.3,0.5,0.8,0.5,1.2c0.1,0.5,0.1,0.9,0.1,1.4c0,0.4,0,0.9,0,1.3s0,0.9,0,1.3
	l-0.1,1.3c0,0.4,0,0.9,0,1.3c0,0.3,0.1,0.7,0.2,1c0.2,0.3,0.5,0.4,0.9,0.4c0.1,0,0.2,0,0.3,0l0.2-0.1l0.2-0.1h0.2c0,0,0.1,0,0.1,0.1
	c0,0,0.1,0.1,0.1,0.1l0,0c0,0.1-0.1,0.2-0.1,0.3c-0.1,0.1-0.2,0.2-0.3,0.3c-0.2,0.1-0.3,0.2-0.5,0.3c-0.2,0.1-0.4,0.2-0.6,0.3
	c-0.2,0.1-0.4,0.1-0.6,0.2c-0.2,0-0.4,0.1-0.5,0.1c-0.5,0-0.9-0.2-1.2-0.5c-0.3-0.3-0.6-0.7-0.8-1.1l-0.1,0.1l-0.1,0.1
	c-0.6,0.4-1.3,0.7-1.9,1c-0.7,0.3-1.4,0.5-2.1,0.5c-0.7,0-1.4-0.2-1.9-0.7c-0.5-0.5-0.7-1.2-0.7-1.9c-0.1-1.1,0.4-2.2,1.4-2.8
	c1-0.6,2-1,3.1-1.2l1.1-0.2l1-0.2L126.8,13.3z M123.1,17.7L123.1,17.7c0,0.5,0.2,0.9,0.4,1.2c0.2,0.3,0.6,0.5,1,0.5
	c0.7,0.1,1.3-0.1,1.8-0.6c0.3-0.6,0.5-1.2,0.5-1.9v-0.5c0-0.2,0-0.3,0-0.5v-1c0-0.1,0-0.2-0.1-0.3c-0.1-0.1-0.2-0.1-0.3-0.1h-0.2
	c-0.8,0-1.5,0.3-2.1,0.9c-0.6,0.5-1,1.2-1,2L123.1,17.7L123.1,17.7z"/>
<path class="st1" d="M137.3,16.8c0,0.1,0,0.2,0,0.3c0,0.1,0,0.2,0,0.2c0,0.6,0.2,1.2,0.4,1.7c0.3,0.5,0.9,0.9,1.6,0.9h0.1l0.2,0.1
	c0.1,0,0.1,0.1,0.1,0.2v0.1c0,0.1,0,0.1-0.1,0.2c0,0.1-0.1,0.1-0.2,0.1h-0.9l-0.9-0.1l-0.9-0.1H136h-0.3h-0.3H135h-0.4l-0.6,0.1
	h-0.6l0,0c-0.1,0-0.2,0-0.2-0.1c-0.1-0.1-0.1-0.1-0.1-0.2c0-0.1,0.1-0.2,0.2-0.3l0.5-0.4c0.2-0.2,0.3-0.4,0.4-0.6
	c0.1-0.3,0.2-0.6,0.2-0.9v-0.2c0-0.1,0-0.2,0-0.3v-13c0-0.5-0.1-0.9-0.3-1.4c-0.2-0.4-0.6-0.7-1.1-0.7c-0.1,0-0.2,0-0.3-0.1
	c-0.1-0.1-0.1-0.2-0.1-0.3l0,0c0-0.1,0.1-0.2,0.2-0.3c0.1-0.1,0.3-0.1,0.4-0.1h0.2h0.2h0l0.5-0.1l0.5-0.1c0.3-0.1,0.7-0.2,1-0.3
	c0.3-0.1,0.6-0.3,0.9-0.4l0.1-0.2l0.1-0.1l0.1-0.1l0.1-0.1l0.1-0.1h0.1c0.1,0,0.2,0,0.2,0.1c0,0.1,0,0.1,0,0.2c0,0.3,0,0.7,0,1
	l-0.1,1l-0.1,1c0,0.3,0,0.7,0,1L137.3,16.8L137.3,16.8z"/>
<path class="st1" d="M146.1,17.2c0,0.6,0.1,1.3,0.4,1.8c0.4,0.5,1,0.8,1.6,0.8h0.1c0.1,0,0.2,0.1,0.3,0.1c0.1,0,0.1,0.1,0.1,0.2
	c0,0.1-0.1,0.2-0.2,0.2c-0.1,0-0.3,0.1-0.4,0.1h-0.4h-0.8c-0.2,0-0.5,0-0.8-0.1l-0.8-0.1c-0.2,0-0.5,0-0.8,0c-0.2,0-0.4,0-0.6,0
	l-0.6,0.1l-0.6,0.1h-0.6c-0.1,0-0.1,0-0.2,0c-0.1,0-0.1-0.1-0.1-0.1c0,0,0,0,0-0.1s0,0,0-0.1c0.1-0.1,0.1-0.2,0.3-0.3
	c0.2-0.1,0.3-0.3,0.4-0.4c0.5-0.5,0.7-1.2,0.7-1.8v-0.5v-5c0-0.4-0.1-0.8-0.2-1.2c-0.2-0.4-0.6-0.6-1-0.5H142c-0.1,0-0.2,0-0.3,0
	c-0.1,0-0.2-0.1-0.2-0.2c0-0.1,0.1-0.3,0.2-0.4c0.1-0.1,0.3-0.1,0.4-0.1h0.2h0.1c0.6-0.1,1.2-0.3,1.8-0.5c0.6-0.2,1.1-0.6,1.6-0.9
	h0.1h0.1h0.1c0.1,0,0.1,0,0.2,0.1c0,0.1,0,0.1,0,0.2V9c0,0.1,0,0.1,0,0.2L146.1,17.2L146.1,17.2z M142.8,3.7l0.2-0.3l0.1-0.1
	l0.1-0.1l0.2-0.2l0.2-0.2l0.7-0.8l0.1-0.1l0.1-0.1c0.1,0,0.1-0.1,0.2-0.1h0.1c0,0,0,0,0.1,0c0.1,0,0.2,0.1,0.3,0.2l0.3,0.3l0.2,0.2
	l0.2,0.2c0.2,0.2,0.4,0.4,0.5,0.5c0.1,0.1,0.2,0.2,0.2,0.3c0,0.1,0.1,0.1,0.1,0.2c0,0.1,0,0.1,0.1,0.2c0,0.2-0.1,0.4-0.2,0.6
	c-0.1,0.2-0.2,0.3-0.4,0.5l-0.1,0.1l-0.1,0.1c-0.1,0.1-0.1,0.1-0.2,0.2c-0.1,0.1-0.1,0.2-0.2,0.2c-0.1,0.1-0.2,0.3-0.3,0.4
	c-0.1,0.1-0.3,0.2-0.4,0.2h-0.1L144.4,6c0,0-0.1-0.1-0.1-0.1c-0.1-0.1-0.2-0.2-0.3-0.3c-0.2-0.2-0.3-0.3-0.4-0.5L143.5,5
	c0,0,0-0.1-0.1-0.1c-0.2-0.2-0.3-0.4-0.5-0.6c-0.1-0.1-0.2-0.3-0.2-0.4C142.7,3.8,142.8,3.7,142.8,3.7z"/>
<path class="st1" d="M149.2,14.8c0-0.1,0-0.2,0-0.3c0.1-1.4,0.7-2.8,1.6-3.9c0.9-1.2,2.2-1.9,3.7-1.9h0.4h0.4
	c1.2,0.2,2.2,0.7,3.1,1.5c0.9,0.7,1.4,1.8,1.4,3c0,0.2-0.1,0.3-0.2,0.4c-0.1,0.1-0.3,0.1-0.4,0.1h-3.2h-1.6h-1.6
	c-0.1,0-0.3,0-0.4,0.1c-0.1,0.1-0.2,0.2-0.2,0.4c0,0.1,0,0.2,0,0.3s0,0.2,0,0.3c0.1,1.1,0.6,2.1,1.2,2.9c0.7,0.9,1.7,1.4,2.8,1.3
	h0.4c0.1,0,0.3,0,0.4-0.1c0.3-0.1,0.7-0.2,1-0.3c0.3-0.1,0.6-0.3,0.9-0.6l0.1-0.1l0.1-0.2l0.2-0.2c0.1-0.1,0.1-0.1,0.2-0.1
	c0.1,0,0.2,0,0.2,0.1c0.1,0.1,0.1,0.1,0.1,0.2c0,0.1,0,0.2-0.1,0.3l-0.2,0.3c-0.1,0.1-0.1,0.2-0.2,0.2l-0.2,0.2l-0.3,0.3l-0.3,0.2
	c-0.5,0.5-1.1,0.8-1.8,1.1c-0.7,0.3-1.4,0.4-2.1,0.4c-1.5,0.1-3-0.6-4-1.7c-1-1.1-1.5-2.6-1.5-4.1L149.2,14.8L149.2,14.8z
	 M152.9,10.1c-0.4,0.4-0.6,1-0.8,1.5c0,0.2-0.1,0.3-0.1,0.5c0,0.1,0,0.3,0,0.4c0,0.2,0.1,0.4,0.2,0.5c0.2,0.1,0.4,0.1,0.6,0.1h2.6
	c0.4,0,0.8-0.1,1.1-0.2c0.3,0,0.5-0.3,0.5-0.6v-0.2c0,0,0-0.1,0-0.1c-0.1-0.7-0.3-1.3-0.8-1.8c-0.4-0.5-1.1-0.8-1.8-0.8
	C153.8,9.4,153.2,9.6,152.9,10.1L152.9,10.1z"/>
<path class="st1" d="M165.6,16.9c0,0.7,0.1,1.4,0.4,2c0.3,0.6,0.9,1,1.6,1.1c0.1,0,0.2,0,0.3,0.1c0.1,0,0.1,0.2,0.1,0.3
	c0,0.1,0,0.1,0,0.2c0,0.1-0.1,0.1-0.2,0.1h-0.8l-0.9-0.1l-1-0.1c-0.3,0-0.6,0-1,0h-0.6l-0.6,0.1l-0.7,0.1h-0.6
	c-0.2,0-0.3-0.2-0.3-0.3c0-0.1,0-0.1,0.1-0.2c0.1-0.1,0.1-0.1,0.2-0.1l0.2-0.1l0.3-0.2c0.2-0.2,0.4-0.4,0.5-0.6
	c0.2-0.4,0.3-0.8,0.2-1.2v-0.3c0,0,0-0.1,0-0.1c0-0.1,0-0.1,0-0.2v-5c0-0.4-0.1-0.9-0.2-1.3c-0.3-0.3-0.7-0.5-1.1-0.5
	c-0.1,0-0.2,0-0.2-0.1c-0.1,0-0.1-0.1-0.1-0.2c0-0.1,0-0.2,0.1-0.3c0.1-0.1,0.2-0.1,0.3-0.1c0.5-0.1,1-0.2,1.4-0.3
	c0.5-0.2,0.9-0.3,1.4-0.6l0.6-0.3l0.6-0.3l0,0c0.1,0,0.1,0,0.2,0.1c0,0.1,0.1,0.1,0.1,0.2c0,0.2,0,0.3,0,0.5c0,0.2,0,0.3,0,0.5
	l-0.1,0.5c0,0.2,0,0.3,0,0.5v0.1c0,0.1,0,0.1,0.1,0.2c0,0,0.1,0.1,0.1,0.1l0,0c0.2-0.1,0.3-0.2,0.4-0.4l0.7-0.8l0.4-0.4
	c0.1-0.1,0.3-0.3,0.4-0.4c0.1-0.1,0.3-0.2,0.5-0.3c0.1-0.1,0.3-0.1,0.4-0.2l0,0c0.2,0,0.3,0.1,0.5,0.1c0.2,0.1,0.4,0.2,0.6,0.3
	l0.3,0.2l0.3,0.2c0.2,0.1,0.3,0.3,0.4,0.4c0.1,0.1,0.2,0.2,0.2,0.3c0,0.1-0.1,0.3-0.1,0.4c-0.1,0.2-0.2,0.4-0.3,0.6
	c-0.1,0.2-0.2,0.3-0.3,0.5c-0.1,0.1-0.2,0.3-0.3,0.4c-0.1,0.1-0.1,0.1-0.2,0.1c-0.1,0-0.1,0.1-0.2,0.1c-0.2,0-0.3-0.1-0.4-0.2
	c-0.2-0.1-0.4-0.3-0.5-0.4c-0.2-0.2-0.4-0.3-0.6-0.4c-0.2-0.1-0.5-0.2-0.8-0.2c-0.5-0.1-1,0.2-1.3,0.7c-0.2,0.5-0.4,1-0.4,1.5
	L165.6,16.9L165.6,16.9z"/>
<path class="st1" d="M4.6,59.4c0.1-0.8-0.2-1.6-0.8-2.2c-0.6-0.6-1.4-0.8-2.3-0.8c-0.1,0-0.2,0-0.3-0.1c-0.2-0.2-0.2-0.4,0-0.6
	c0,0,0,0,0,0c0.1-0.1,0.2-0.1,0.4-0.1c0,0,0.1,0,0.1,0h0.2h0.7h0.7h0.6h0.6c0.6,0,1.2,0,1.8-0.1L8,55.3l1.8-0.1
	c0.6-0.1,1.2-0.1,1.8-0.1c2.9,0,5.7,0.8,8.1,2.3c2.4,1.5,3.6,4,3.6,7.4c0.1,3-1.1,5.9-3.2,8.1C18,75,15,76.2,12,76.1h-1.3H9.4
	c-0.4,0-0.9,0-1.3,0s-0.9,0-1.3,0c-0.3,0-0.7,0-1,0l-1,0.1l-0.9,0.1c-0.3,0-0.6,0-0.9,0c-0.1,0-0.2-0.1-0.2-0.2
	c-0.1-0.1-0.1-0.2-0.1-0.3c0-0.1,0-0.2,0.1-0.2c0.1-0.1,0.2-0.1,0.3-0.1l0.3-0.1c0.1,0,0.2-0.1,0.3-0.2c0.3-0.2,0.5-0.4,0.7-0.7
	c0.2-0.6,0.4-1.2,0.3-1.8L4.6,59.4L4.6,59.4z M8.1,71.3c0,1.5,0.3,2.5,0.9,3c0.9,0.6,1.9,0.8,3,0.7c2.3,0.2,4.5-0.9,5.8-2.8
	c1.3-1.9,1.9-4.1,1.9-6.4c0.1-2.5-0.8-5-2.5-6.9c-1.8-1.8-4.2-2.8-6.8-2.7c-0.6-0.1-1.3,0.1-1.8,0.4C8.2,57,8,57.5,8.1,58V71.3z"/>
<path class="st1" d="M41,62.2c0,0.2,0,0.4,0,0.6s0,0.4,0,0.7c0,0.2,0.1,0.5,0.3,0.6c0.2,0.2,0.4,0.2,0.6,0.2h0.7
	c0.4,0,0.7-0.1,1-0.1h0.8c0.3,0,0.7,0,1-0.1c0.3-0.1,0.6-0.2,0.8-0.4c0.2-0.2,0.4-0.4,0.5-0.7c0.2-0.4,0.5-0.8,0.6-1.2l0,0l0,0
	c0-0.1,0.1-0.2,0.1-0.2c0.1,0,0.1-0.1,0.2-0.1c0.1,0,0.2,0,0.3,0.1c0.1,0.1,0.1,0.2,0.1,0.3c0,0.1,0,0.2,0,0.3s0,0.2,0,0.3
	s0,0.2,0,0.4s0,0.2,0,0.3c0,0.4,0,0.8,0,1.3s0,0.8,0.1,1.3c0,0.1,0,0.2,0,0.3v0.2l0.1,1l0.1,1c0,0.1,0,0.2-0.1,0.3
	c0,0.1-0.1,0.1-0.2,0.1l0,0c-0.1,0-0.3,0-0.3-0.1c-0.1-0.1-0.1-0.3-0.2-0.4c0-0.1-0.1-0.3-0.1-0.5c0-0.2-0.1-0.3-0.2-0.5
	c-0.2-0.4-0.5-0.8-0.8-1.1c-0.6-0.4-1.2-0.6-1.9-0.5h-2c-0.4,0-0.7,0.1-1,0.3c-0.2,0.3-0.3,0.7-0.3,1.1c0,0.3,0,0.6,0,0.9
	s0,0.6,0,0.9v2.4c0,0.2,0,0.5,0,0.7c0,0.3,0.1,0.6,0.1,0.9c0,0.3,0.1,0.6,0.2,0.8c0.1,0.4,0.3,0.7,0.6,0.9c0.3,0.2,0.7,0.3,1.1,0.2
	c1.5,0.1,2.9-0.2,4.3-0.6c0.9-0.3,1.7-0.8,2.4-1.4c0.4-0.4,0.7-0.8,1-1.3c0.1-0.3,0.3-0.5,0.5-0.7c0,0,0,0,0.1,0l0,0
	c0.1,0,0.2,0.1,0.2,0.1c0.1,0.1,0.1,0.2,0.1,0.3c0.1,1.4-0.4,2.8-1.5,3.8c-1.1,0.9-2.6,1.3-4,1.2c-0.5,0-1,0-1.5-0.1l-1.5-0.1
	l-1.5-0.1c-0.5,0-1,0-1.5,0c-0.7,0-1.4,0-2.1,0s-1.4,0-2.1,0.1c-0.1,0-0.2,0-0.3,0c-0.1,0-0.2-0.2-0.2-0.3c0-0.1,0-0.2,0.1-0.3
	c0.1-0.1,0.2-0.2,0.3-0.2c0.8-0.2,1.4-0.8,1.6-1.6c0.2-0.8,0.3-1.5,0.2-2.3V59.3c0.1-0.8-0.1-1.5-0.5-2.2c-0.3-0.4-0.7-0.6-1.1-0.8
	c-0.1-0.1-0.3-0.1-0.4-0.1l-0.4-0.1c-0.2,0-0.4-0.1-0.5-0.1c-0.1,0-0.2-0.2-0.2-0.3c0-0.1,0-0.2,0.1-0.3c0.1-0.1,0.1-0.2,0.2-0.2
	c0.6,0,1.1,0,1.7,0s1.1,0,1.7,0l1.7,0.1c0.6,0,1.1,0,1.7,0h1.5h0.8h0.8l3.5-0.1h0.4h0.4h0.4h0.4c0.1,0,0.2,0,0.3,0.1
	c0.1,0.1,0.1,0.2,0.1,0.4c0,0.3,0,0.5,0,0.8l0.1,0.8l0.1,0.8c0,0.3,0,0.6,0,0.8c0,0.1,0,0.1,0,0.2c0,0.1,0,0.1,0,0.2
	c0,0.1-0.1,0.3-0.2,0.4c-0.1,0.1-0.2,0.2-0.3,0.2c-0.1,0-0.2-0.1-0.3-0.2c-0.1-0.1-0.1-0.2-0.1-0.3v-0.2c0.1-0.9-0.4-1.8-1.2-2.2
	c-0.8-0.4-1.7-0.6-2.5-0.6c-0.1,0-0.2,0-0.4,0h-0.8c-0.1,0-0.2,0-0.2,0h-0.5c-0.1,0-0.2,0-0.3,0h-0.6c-0.4,0-0.9,0.1-1.3,0.3
	c-0.3,0.4-0.5,0.9-0.5,1.3V62.2L41,62.2z"/>
<path class="st1" d="M78.4,67.8l0.3,0.3l0.4,0.5c0,0,0.1,0.1,0.1,0.1l0.1,0.1l0.6,0.5c0.1,0.1,0.2,0.2,0.4,0.2l0,0
	c0.1,0,0.2-0.1,0.2-0.2c0.1-0.1,0.1-0.2,0.1-0.4v-0.2c0-0.6,0-1.2,0-1.8s0-1.2,0-1.8c0-0.6,0-1.2,0-1.8c0-0.6,0-1.2,0-1.8
	c0-1.3-0.2-2.5-0.5-3.7c-0.4-1.1-1.4-1.8-3-1.8c-0.1,0-0.2-0.1-0.3-0.1c-0.1,0-0.2-0.1-0.2-0.3c0-0.1,0-0.2,0.1-0.3
	c0.1-0.1,0.2-0.1,0.2-0.1c0.2,0,0.5,0,0.8,0l0.9,0.1c0.2,0,0.5,0.1,0.8,0.1c0.3,0,0.5,0,0.8,0H81h0.9c0.3,0,0.6,0,0.9-0.1l0.8-0.1
	h0.1c0,0,0.1,0,0.1,0h0.2c0.1,0,0.3,0,0.4,0.1c0.1,0.1,0.2,0.2,0.2,0.4c0,0.1-0.1,0.2-0.2,0.3L84,56.2c-0.6,0.1-1.1,0.5-1.4,1
	c-0.3,0.5-0.4,1.1-0.5,1.7c0,0.2,0,0.5,0,0.8s0,0.5,0,0.7l-0.2,9.5l-0.1,1.2c0,0.4,0,0.8,0,1.2c0,0.4,0,0.8,0,1.2c0,0.4,0,0.8,0,1.2
	c0,0.4,0,0.8,0,1.2v0.1c0,0.1,0,0.2-0.1,0.3c0,0.1-0.1,0.1-0.2,0.1l0,0c0,0,0,0-0.1,0c-0.1,0-0.2,0-0.3-0.1c-0.1,0-0.1-0.1-0.2-0.2
	L67.2,60.6l-0.1-0.1c0,0-0.1-0.1-0.1-0.1c0-0.1-0.1-0.1-0.1-0.2c-0.1-0.1-0.1-0.1-0.2-0.1c-0.1,0-0.2,0.1-0.3,0.2
	c-0.1,0.1-0.1,0.2-0.1,0.3v0.2v0.4v5.9c0,0.6,0,1.2,0,1.7l0.1,1.7v0.1c0,1.1,0.2,2.2,0.6,3.2c0.3,0.8,1.2,1.3,2.7,1.4h0.1
	c0.1,0,0.2,0.1,0.2,0.1c0.1,0.1,0.1,0.2,0.1,0.2c0,0.1,0,0.2-0.1,0.3c-0.1,0.1-0.2,0.1-0.3,0.2c-0.3,0-0.5,0-0.8,0l-0.9-0.1l-1-0.1
	c-0.3,0-0.7,0-1,0s-0.7,0-1.2,0.1l-1.2,0.1h-0.4h-0.4c-0.1,0-0.2,0-0.3-0.1c-0.1-0.1-0.1-0.2-0.1-0.3c0-0.1,0-0.1,0.1-0.2
	c0.1,0,0.1,0,0.2,0l0.4-0.2c0.2-0.1,0.4-0.2,0.6-0.3c0.4-0.3,0.6-0.7,0.8-1.2c0.3-0.8,0.5-1.7,0.4-2.6l0.1-3.6v-6.6
	c0-1.1-0.2-2.2-0.7-3.3c-0.5-1-1.6-1.7-2.7-1.7c-0.1,0-0.2,0-0.3-0.1c-0.1-0.1-0.2-0.1-0.2-0.2c0-0.1,0.1-0.3,0.2-0.4
	c0.1-0.1,0.2-0.1,0.4-0.1h0.8h0.8c0.3,0,0.6,0,0.9,0c0.3,0,0.6,0,0.9-0.1l0.8-0.1c0.3,0,0.6,0,0.9,0c0.3,0,0.7,0.1,0.9,0.3
	c0.2,0.2,0.5,0.5,0.7,0.7c0.1,0.1,0.1,0.1,0.2,0.2l0.1,0.2l0.9,1l0.9,1.1L78.4,67.8z"/>
<path class="st1" d="M106,70.5c0,1.1,0.2,2.2,0.5,3.3c0.4,0.9,1.3,1.4,2.8,1.5c0.1,0,0.3,0,0.4,0.1c0.1,0.1,0.2,0.2,0.2,0.3
	c0,0.1,0,0.2,0,0.3c-0.1,0.1-0.2,0.2-0.3,0.2h-1.1c-0.4,0-0.7,0-1.1-0.1l-1.1-0.1c-0.4,0-0.7,0-1.1,0s-0.8,0-1.4,0l-1.4,0.1
	l-1.4,0.1c-0.5,0-0.9,0-1.4,0c-0.1,0-0.2,0-0.3-0.1c0-0.1-0.1-0.2-0.1-0.3c0-0.1,0.1-0.2,0.2-0.3c0.1-0.1,0.3-0.1,0.4-0.1l0.5-0.1
	l0.5-0.2c0.4-0.2,0.8-0.5,1.1-0.8c0.4-0.5,0.6-1.2,0.5-1.8V58.5c0-0.4-0.1-0.8-0.2-1.1c-0.2-0.3-0.6-0.5-1-0.4h-0.8
	c-0.2,0-0.5,0-0.8,0c-0.4,0-0.7,0-1.1,0.1c-0.4,0-0.8,0.1-1.1,0.2c-0.5,0.1-1,0.4-1.3,0.8c-0.3,0.4-0.5,0.8-0.6,1.2
	c-0.1,0.2-0.1,0.3-0.2,0.5c0,0.2-0.1,0.3-0.1,0.5c-0.1,0.2-0.2,0.5-0.3,0.7c-0.1,0.2-0.2,0.3-0.4,0.3c-0.1,0-0.3-0.1-0.3-0.2
	c-0.1-0.1-0.1-0.2-0.1-0.4c0-0.3,0-0.7,0.1-1c0.1-0.5,0.1-1,0.2-1.5c0.1-0.4,0.1-0.8,0.2-1.2c0.1-0.4,0.1-0.7,0.1-1
	c0-0.1,0.1-0.3,0.1-0.4c0.1-0.1,0.2-0.2,0.4-0.2h0.6h0.6H97h0.6H99h1.4h1.4h1.4c1.4,0,2.9,0,4.3,0s2.9,0,4.3-0.1h0.5h0.5
	c0.2,0,0.4,0,0.6,0.1c0.2,0.1,0.3,0.4,0.2,0.6c0,0.3,0,0.5,0.1,0.8s0.1,0.5,0.1,0.8l0.1,1c0,0.3,0.1,0.7,0.1,1c0,0.1,0,0.2-0.1,0.3
	c-0.1,0.1-0.2,0.2-0.3,0.1c-0.1,0-0.2-0.1-0.3-0.2c-0.1-0.1-0.1-0.2-0.1-0.4l0,0l0,0c-0.1-0.9-0.7-1.6-1.4-2.1
	c-0.8-0.4-1.6-0.6-2.5-0.5h-0.8c-0.6,0-1.3,0.1-1.9,0.3c-0.5,0.2-0.7,0.8-0.7,1.8L106,70.5L106,70.5z"/>
<path class="st1" d="M139.8,73c0.3,0.7,0.6,1.3,1.1,1.8c0.5,0.4,1.2,0.7,1.9,0.8c0.1,0,0.2,0.1,0.2,0.2c0,0.1,0,0.2,0,0.3
	c0,0.1,0,0.2-0.1,0.2c-0.1,0.1-0.2,0.1-0.3,0.1c-0.8-0.1-1.5-0.2-2.3-0.2c-0.8,0-1.5-0.1-2.3-0.1h-0.6c-0.2,0-0.4,0-0.6,0
	c-0.4,0-0.7,0-1.1,0c-0.4,0-0.7,0.1-0.9,0.1h-0.1h-0.1h-0.1h-0.1c-0.1,0-0.2,0-0.3-0.1c-0.1-0.1-0.1-0.2-0.1-0.3l0,0
	c0.1-0.1,0.2-0.3,0.3-0.3l0.7-0.4c0.3-0.2,0.5-0.4,0.7-0.6c0.2-0.3,0.3-0.6,0.3-0.9c0-0.3,0-0.6-0.1-0.8c-0.1-0.3-0.2-0.6-0.3-0.9
	l-0.2-0.6l-0.3-0.5c-0.1-0.2-0.2-0.4-0.3-0.6c-0.1-0.2-0.2-0.4-0.2-0.5c-0.1-0.2-0.2-0.4-0.4-0.5c-0.2-0.1-0.4-0.2-0.6-0.3
	c-0.2,0-0.5-0.1-0.8-0.1H132h-4.1c-0.5,0-1,0.2-1.3,0.5c-0.3,0.3-0.5,0.7-0.7,1.1l-0.1,0.3l-0.1,0.3l-0.1,0.3l-0.1,0.3
	c-0.1,0.2-0.2,0.3-0.2,0.5c-0.1,0.2-0.1,0.3-0.2,0.5c0,0.1,0,0.2,0,0.3c0,0.1,0,0.2,0,0.3c0,0.7,0.3,1.3,0.8,1.7
	c0.6,0.3,1.2,0.6,1.8,0.6h0c0,0,0,0,0.1,0c0.1,0,0.2,0.1,0.3,0.1c0.1,0.1,0.1,0.2,0.1,0.3l0,0c0,0.1-0.1,0.2-0.2,0.3
	c-0.1,0.1-0.2,0.1-0.3,0.1h-0.1c-0.2,0-0.5,0-0.7,0l-0.7-0.1l-0.7-0.1c-0.2,0-0.5,0-0.7,0c-0.3,0-0.6,0-0.9,0c-0.3,0-0.6,0-0.9,0.1
	l-0.9,0.1c-0.3,0-0.6,0-0.9,0c-0.1,0-0.2,0-0.3,0c-0.1,0-0.1-0.1-0.1-0.2c0-0.1,0-0.2,0.1-0.3c0.1-0.1,0.2-0.2,0.3-0.2
	c0.6-0.2,1-0.5,1.4-1c0.3-0.5,0.6-1,0.9-1.6c0-0.1,0.1-0.3,0.2-0.4l0.2-0.4l0.1-0.2c0-0.1,0.1-0.2,0.1-0.2l4.1-9.6
	c0.1-0.3,0.2-0.5,0.3-0.8l0.4-0.8l1.4-2.9c0.1-0.2,0.2-0.3,0.2-0.5c0.1-0.2,0.2-0.5,0.3-0.8c0,0,0.1-0.1,0.1-0.1l0.1-0.1
	c0.1-0.2,0.2-0.5,0.4-0.7c0.1-0.1,0.2-0.2,0.3-0.3c0.1,0,0.1,0,0.2,0.1c0.1,0.1,0.1,0.1,0.2,0.2l0.1,0.2c0,0.1,0.1,0.1,0.1,0.2
	c0.1,0.1,0.1,0.2,0.2,0.4l0.1,0.2l0.4,0.8L139.8,73z M131.5,62c0-0.1,0-0.2-0.1-0.3l-0.2-0.5l-0.1-0.2l-0.1-0.2
	c-0.1-0.1-0.1-0.2-0.2-0.3c0-0.1-0.1-0.1-0.2-0.1h-0.1c-0.1,0.1-0.1,0.1-0.2,0.2l-0.2,0.3l-0.1,0.3l-0.1,0.2l-0.3,0.6l-1.8,4.1
	c0,0,0,0,0,0.1s0,0,0,0.1c-0.1,0.1-0.1,0.2-0.2,0.3c0,0.1-0.1,0.2-0.1,0.3c0,0.1,0.1,0.3,0.2,0.4c0.1,0.1,0.3,0.1,0.4,0.1h5.1h0.1
	c0.1,0,0.2,0,0.2-0.1c0.1,0,0.1-0.1,0.1-0.2c0-0.1,0-0.1,0-0.2l-0.1-0.1l0,0l0,0L131.5,62z"/>
<path class="st1" d="M159.7,70.5v1.7c0,0.2,0,0.4,0,0.6c0,0.3,0.1,0.6,0.2,0.9c0,0.2,0.2,0.5,0.3,0.7c0.1,0.1,0.3,0.2,0.5,0.3
	c0.2,0,0.4,0,0.7,0c1.6,0,3.2-0.2,4.7-0.8c1.5-0.6,2.7-1.7,3.6-3l0.1-0.1c0,0,0.1-0.1,0.2-0.1c0.1,0,0.1,0,0.2,0.1
	c0,0.1,0.1,0.1,0.1,0.2c0,0,0,0,0,0.1c0,0,0,0,0,0.1c0,1.2-0.4,2.4-1.2,3.4c-0.8,1-2,1.6-3.2,1.5c-0.6,0-1.1,0-1.7,0s-1.1,0-1.7-0.1
	h-0.6h-0.6c-0.4,0-0.7-0.1-1.1-0.1h-1.1c-0.7,0-1.5,0-2.2,0.1c-0.7,0.1-1.5,0.1-2.2,0.2h0c-0.1,0-0.2,0-0.3,0
	c-0.1,0-0.2-0.1-0.2-0.2c0-0.1,0-0.2,0.1-0.3c0.1-0.1,0.2-0.1,0.3-0.2c0.6-0.1,1.1-0.5,1.3-1.1c0.2-0.5,0.3-1.1,0.4-1.7
	c0-0.1,0-0.3,0-0.4V59.2c0-0.6-0.1-1.3-0.4-1.8c-0.4-0.5-1-0.9-1.6-0.9h-0.3h-0.4c-0.2,0-0.4-0.1-0.6-0.2c-0.1-0.1-0.2-0.2-0.2-0.3
	c0-0.1,0-0.2,0.1-0.3c0.1-0.1,0.2-0.2,0.3-0.2c0.3,0,0.5,0,0.8,0l0.8,0.1l0.8,0.1c0.3,0,0.5,0,0.8,0c0.4,0,0.8,0,1.2,0l1.2-0.1
	l1.2-0.1c0.4,0,0.8,0,1.2,0h0.3c0.1,0,0.2,0.1,0.3,0.1c0.1,0,0.2,0.1,0.2,0.3l0,0c0,0.1-0.1,0.3-0.2,0.3c-0.1,0.1-0.2,0.1-0.4,0.1
	h-0.1c-0.5,0-0.9,0.2-1.1,0.7c-0.2,0.4-0.3,0.8-0.4,1.3c0,0.2,0,0.3,0,0.5L159.7,70.5L159.7,70.5z"/>
<path class="st2" d="M7.9,35c0-0.5-0.1-0.9-0.5-1.2c-0.4-0.3-0.9-0.4-1.3-0.4c-0.1,0-0.1,0-0.2,0c-0.1,0-0.1-0.1-0.1-0.2
	c0-0.1,0-0.1,0.1-0.2c0.1,0,0.1-0.1,0.2-0.1h0.1h1.6c0.4,0,0.7,0,1.1,0l1.1-0.1l1-0.1c0.4,0,0.7,0,1.1,0c1.7,0,3.4,0.4,4.8,1.2
	c1.4,0.8,2.3,2.4,2.1,4c0,1.7-0.7,3.3-1.9,4.4c-1.3,1.2-3,1.8-4.8,1.8h-0.7h-0.8H10H9.2H8.6l-0.6,0H7.5H7c-0.1,0-0.1,0-0.2-0.1
	c0-0.1,0-0.1,0-0.2c0,0,0-0.1,0-0.2l0.2-0.1l0.2,0l0.2-0.1c0.2-0.1,0.3-0.2,0.4-0.4c0.1-0.3,0.2-0.7,0.2-1L7.9,35L7.9,35z M10,41.5
	c-0.1,0.6,0.1,1.2,0.5,1.6c0.5,0.3,1.2,0.5,1.8,0.4c1.3,0.1,2.6-0.5,3.4-1.5c0.7-1,1.1-2.2,1.1-3.5c0-1.4-0.5-2.8-1.5-3.8
	c-1.1-1-2.5-1.6-4-1.5c-0.4,0-0.7,0-1.1,0.2c-0.2,0.2-0.3,0.5-0.3,0.7V41.5z"/>
<path class="st2" d="M29.7,41.2c0,0.6,0.1,1.2,0.3,1.7c0.3,0.6,0.9,0.9,1.5,0.8c0.1,0,0.1,0,0.2,0c0.1,0,0.1,0.1,0.1,0.2
	c0,0.1,0,0.2-0.1,0.2c-0.1,0-0.2,0.1-0.3,0.1h-0.1h-0.7L30,44h-0.7h-0.7h-0.5l-0.5,0h-0.2h-0.1h-0.4h-0.4h-0.2
	c-0.1,0-0.1-0.1-0.1-0.1c0,0,0-0.1,0-0.1c0,0,0.1-0.1,0.2-0.1l0.3-0.1l0.3-0.2c0.2-0.1,0.3-0.3,0.4-0.5c0.2-0.3,0.2-0.6,0.2-0.9
	c0-0.1,0-0.2,0-0.3s0-0.2,0-0.3V35c0,0,0-0.1,0-0.1v-0.1c0-0.4-0.1-0.7-0.3-1c-0.2-0.2-0.4-0.3-0.7-0.4l-0.3-0.1h-0.2
	c-0.1,0-0.3-0.1-0.4-0.1c-0.1,0-0.2-0.1-0.2-0.2c0-0.1,0-0.1,0.1-0.2c0-0.1,0.1-0.1,0.2-0.1H26h0.1h0.1l0.3,0h0.5H28l0.9-0.1l0.9,0
	h0.9c0.1,0,0.1,0,0.2,0c0,0,0.1,0.1,0.1,0.2c0,0.1,0,0.1-0.1,0.2c-0.1,0-0.1,0.1-0.2,0.1c-0.3,0-0.6,0.1-0.9,0.4
	c-0.1,0.3-0.2,0.6-0.2,0.9L29.7,41.2L29.7,41.2z"/>
<path class="st2" d="M45.7,40.7L45.7,40.7l0.1,0.2c0,0.1,0.1,0.1,0.1,0.2c0,0.1,0.1,0.1,0.2,0.1l0,0c0.1,0,0.1,0,0.2-0.1
	c0,0,0.1-0.1,0.1-0.1v-0.1v-0.1l3.4-6.6l0.4-0.4l0.3-0.5c0.1-0.1,0.1-0.2,0.2-0.3c0.1-0.1,0.2-0.2,0.4-0.2h1.2h0.3h0.2H53h0.3
	c0.1,0,0.2,0,0.2,0c0.1,0,0.1,0.1,0.1,0.2c0,0.1,0,0.1-0.1,0.2c-0.1,0-0.1,0-0.2,0c-0.5,0-0.9,0.2-1.2,0.6c-0.2,0.4-0.3,0.8-0.3,1.3
	v0.4c0,0.1,0,0.1,0,0.2c0,0.1,0,0.1,0,0.2l0.2,5.1c0,0.6,0.2,1.2,0.4,1.8c0.3,0.6,0.9,0.9,1.5,0.9c0.1,0,0.1,0,0.2,0.1
	c0.1,0,0.1,0.1,0.1,0.2c0,0.1,0,0.1-0.1,0.1c-0.1,0-0.2,0-0.2,0h-0.2h-0.5l-0.5,0h-0.5h-0.5c-0.4,0-0.8,0-1.2,0l-1.2,0.1H49
	c-0.1,0-0.1-0.1-0.1-0.1c0,0,0-0.1,0-0.1l0.1-0.2l0.2-0.1l0.3-0.1c0.2-0.1,0.3-0.3,0.4-0.4c0.1-0.2,0.2-0.5,0.2-0.7v-0.2
	c0,0,0-0.1,0-0.1c0,0,0-0.1,0-0.1l-0.3-5.5v-0.1v-0.1c0,0,0,0-0.1,0l0,0c-0.1,0-0.1,0-0.2,0.1c0,0-0.1,0.1-0.1,0.2l-0.1,0.1v0.1
	L46,43.4c0,0.1,0,0.1-0.1,0.2l-0.1,0.2c0,0.1-0.1,0.2-0.2,0.3c0,0.1-0.1,0.1-0.2,0.1c-0.1,0-0.1,0-0.2-0.1c-0.1-0.1-0.2-0.2-0.3-0.3
	c-0.1-0.1-0.1-0.2-0.2-0.3l-0.1-0.3l-0.2-0.5l-0.2-0.3l-2.9-5.9l0,0l0,0c0,0,0-0.1,0-0.1c0,0,0,0-0.1,0l0,0c-0.1,0-0.1,0-0.1,0.1
	c0,0,0,0.1,0,0.1v0.2c0,0,0,0.1,0,0.1v0.1l-0.1,4.2c0,0.1,0,0.2,0,0.3s0,0.2,0,0.3c0,0.4,0.2,0.8,0.4,1.2c0.2,0.4,0.6,0.7,1.1,0.7
	h0.1h0.1l0,0.1c0.1,0,0.1,0.1,0.1,0.2l0,0c0,0.1,0,0.1-0.1,0.1h-0.2H42l-0.5,0H41h-0.5h-0.2H40h-0.3h-0.4h-0.3c-0.1,0-0.2,0-0.2,0
	c-0.1,0-0.1-0.1-0.1-0.2l0,0c0,0,0-0.1,0-0.1l0.1-0.1l0,0c0.5-0.1,0.9-0.4,1.1-0.9c0.1-0.4,0.2-0.9,0.2-1.4l0.2-5.4v-0.5
	c0-0.5-0.2-1.1-0.5-1.5c-0.3-0.5-0.9-0.7-1.5-0.7c-0.1,0-0.2,0-0.2,0c-0.1,0-0.1-0.1-0.1-0.2l0,0c0-0.1,0-0.1,0.1-0.2
	c0.1,0,0.1-0.1,0.2-0.1H39h0.3h0.4H40h0.4h0.2h0.3h0.3c0.2,0,0.4,0,0.5,0.1c0.2,0.1,0.3,0.2,0.4,0.4L45.7,40.7z"/>
<path class="st2" d="M64.6,36.5c0,0.1,0,0.2,0,0.3c0,0.1,0,0.2,0,0.3c0,0.1,0.1,0.3,0.2,0.3c0.1,0.1,0.2,0.1,0.4,0.1h0.4h0.6h0.4
	c0.2,0,0.4,0,0.6,0c0.2,0,0.3-0.1,0.5-0.2c0.1-0.1,0.2-0.2,0.3-0.4c0.1-0.2,0.3-0.4,0.4-0.6l0,0l0,0c0,0,0,0,0.1-0.1h0.1
	c0.1,0,0.1,0,0.2,0c0,0,0.1,0.1,0.1,0.2c0,0.1,0,0.1,0,0.2c0,0.1,0,0.1,0,0.2c0,0.1,0,0.1,0,0.2c0,0.1,0,0.1,0,0.2
	c0,0.2,0,0.5,0,0.7v0.7c0,0,0,0.1,0,0.2v-0.1v0.5v0.5c0,0,0,0.1,0,0.2c0,0-0.1,0.1-0.1,0.1l0,0c-0.1,0-0.1,0-0.2-0.1
	c0-0.1,0-0.2,0-0.2l-0.1-0.2c0-0.1-0.1-0.2-0.1-0.3c-0.1-0.2-0.3-0.4-0.5-0.6c-0.3-0.2-0.7-0.3-1.2-0.3h-1.2c-0.2,0-0.4,0-0.6,0.2
	c-0.1,0.2-0.2,0.4-0.2,0.6c0,0.2,0,0.3,0,0.5c0,0.2,0,0.3,0,0.5v1.3c0,0.1,0,0.2,0,0.4c0,0.2,0,0.3,0.1,0.5c0,0.2,0.1,0.3,0.1,0.5
	c0.1,0.2,0.2,0.4,0.4,0.5c0.2,0.1,0.4,0.2,0.6,0.1c0.9,0,1.7-0.1,2.6-0.3c0.5-0.2,0.9-0.4,1.3-0.7c0.2-0.2,0.5-0.4,0.6-0.7
	c0.1-0.1,0.2-0.3,0.3-0.4l0,0l0,0c0.1,0,0.1,0,0.2,0.1c0,0,0.1,0.1,0.1,0.2c0.1,0.8-0.3,1.6-0.9,2.1c-0.7,0.5-1.5,0.7-2.4,0.7
	c-0.3,0-0.6,0-0.9,0l-0.9-0.1l-0.9-0.1h-0.9L62.7,44c-0.4,0-0.8,0-1.2,0.1c-0.1,0-0.1,0-0.2,0c-0.1,0-0.1-0.1-0.1-0.1
	c0-0.1,0-0.1,0.1-0.1c0,0,0.1-0.1,0.2-0.1c0.4-0.1,0.8-0.4,0.9-0.9c0.1-0.4,0.2-0.8,0.2-1.3v-6.7c0-0.4-0.1-0.8-0.3-1.2
	c-0.2-0.2-0.4-0.3-0.7-0.4c-0.1,0-0.2-0.1-0.3-0.1H61c-0.1,0-0.3,0-0.4-0.1c-0.1,0-0.1-0.1-0.2-0.2c0,0,0-0.1,0-0.2
	c0-0.1,0.1-0.1,0.2-0.1h1h1h1h1h1.8h2h1c0.1,0,0.1,0,0.2,0.1c0,0.1,0.1,0.1,0.1,0.2c0,0.1,0,0.3,0,0.5v0.5v0.5c0,0.2,0,0.3,0,0.5
	c0,0,0,0.1,0,0.1c0,0,0,0.1,0,0.1c0,0.1-0.1,0.1-0.1,0.2c0,0.1-0.1,0.1-0.2,0.1c-0.1,0-0.1,0-0.2-0.1c0-0.1,0-0.1,0-0.2V35
	c0.1-0.5-0.2-1-0.7-1.3c-0.5-0.2-1-0.3-1.5-0.3h-0.2h-0.5h-0.2h-0.3h-0.2h-0.3c-0.3,0-0.5,0-0.8,0.2c-0.2,0.2-0.3,0.5-0.3,0.7V36.5
	L64.6,36.5z"/>
<path class="st2" d="M86.7,39.6l0.2,0.2l0.2,0.2l0.1,0l0.1,0.1l0.3,0.3c0.1,0.1,0.1,0.1,0.2,0.1l0,0c0.1,0,0.1-0.1,0.1-0.1
	c0-0.1,0-0.1,0.1-0.2v-0.1c0-0.3,0-0.7,0-1s0-0.7,0-1s0-0.6,0-1s0-0.7,0-1c0-0.7-0.1-1.4-0.3-2c-0.3-0.7-1-1.1-1.8-1
	c-0.1,0-0.1,0-0.2-0.1c-0.1,0-0.1-0.1-0.1-0.1c0-0.1,0.1-0.1,0.2-0.1c0,0,0.1,0,0.2,0h0.4h0.5l0.4,0h0.4h0.5h0.5l0.5,0l0.5-0.1l0,0
	l0,0h0.1c0.1,0,0.2,0,0.3,0c0.1,0,0.1,0.1,0.1,0.2c0,0.1,0,0.1-0.1,0.2L90,33.1c-0.3,0-0.7,0.2-0.8,0.5c-0.2,0.3-0.3,0.6-0.3,0.9
	c0,0.1,0,0.3,0,0.4s0,0.3,0,0.4l-0.1,5.2v0.7c0,0.2,0,0.4,0,0.6c0,0.2,0,0.4,0,0.6s0,0.4,0,0.6s0,0.4,0,0.6l0,0c0,0,0,0.1,0,0.1
	c0,0-0.1,0.1-0.1,0.1l0,0l0,0l-0.2,0c0,0-0.1-0.1-0.1-0.1l-8.2-8.3l0,0h-0.1L80,35.5c0,0-0.1,0-0.1,0c-0.1,0-0.1,0-0.2,0.1
	c0,0.1,0,0.1-0.1,0.2v0V36v3.2c0,0.3,0,0.6,0,0.9v0.9v0.1c0,0.6,0.1,1.2,0.3,1.8c0.4,0.5,1,0.8,1.6,0.8h0.1c0.1,0,0.1,0,0.2,0.1
	c0,0,0.1,0.1,0.1,0.1c0,0.1,0,0.1-0.1,0.2c0,0-0.1,0.1-0.2,0.1h-0.5h-0.5h-0.6h-0.6c-0.2,0-0.5,0-0.7,0L78,44.2h-0.2h-0.2
	c-0.1,0-0.1,0-0.2,0c-0.1,0-0.1-0.1-0.1-0.2c0,0,0-0.1,0.1-0.1l0.1-0.1l0.3-0.1c0.1,0,0.2-0.1,0.3-0.2c0.2-0.2,0.4-0.4,0.5-0.6
	c0.2-0.4,0.3-0.9,0.3-1.4l0.1-2v-3.5c0-0.6-0.1-1.2-0.4-1.8c-0.3-0.6-1-0.9-1.6-0.9c-0.1,0-0.1,0-0.2,0c-0.1,0-0.1-0.1-0.1-0.1
	c0-0.1,0-0.2,0.1-0.2c0-0.1,0.1-0.1,0.2-0.1h0.5h0.5h0.5h0.5h0.5h0.5c0.2,0,0.4,0.1,0.5,0.2c0.1,0.1,0.3,0.3,0.4,0.4l0.1,0.1
	l0.1,0.1l0.5,0.6l0.5,0.6L86.7,39.6z"/>
<path class="st2" d="M98,33.5c0.6-0.6,1.5-0.9,2.4-0.9c0.3,0,0.6,0,0.9,0.1c0.3,0.1,0.5,0.1,0.8,0.2l0.6,0.2
	c0.2,0.1,0.3,0.1,0.5,0.1c0.1,0,0.1,0,0.2,0l0.2-0.1l0,0l0,0l0.2-0.1c0.1,0,0.1,0,0.2,0c0.1,0,0.1,0,0.2,0.1c0,0.1,0,0.1,0,0.2v0.2
	c0,0.1,0,0.1,0,0.2c0,0.2,0,0.4,0,0.6c0,0.2,0,0.4,0.1,0.6c0,0.2,0.1,0.4,0.1,0.6c0,0.2,0,0.4,0,0.6v0.1c0,0.1,0,0.1-0.1,0.2
	c0,0-0.1,0.1-0.1,0.1c-0.1,0-0.1,0-0.2-0.1c0,0-0.1-0.1-0.1-0.2l0,0l0,0c-0.2-0.8-0.6-1.5-1.3-2c-0.6-0.6-1.4-0.9-2.3-0.9h0
	c-0.5,0-0.9,0.2-1.3,0.5c-0.4,0.3-0.6,0.7-0.6,1.2c0,0.5,0.2,0.9,0.7,1.2c0.5,0.3,1,0.6,1.6,0.8l0.4,0.2l0.5,0.2
	c0.8,0.3,1.5,0.6,2.2,1.1c0.7,0.5,1.1,1.4,1,2.3c0,1-0.4,1.9-1.1,2.5c-0.7,0.7-1.7,1.1-2.7,1.1h-0.3h-0.3l-0.5-0.1l-0.5-0.1L99.1,44
	h-0.2l-0.5-0.2h-0.4c-0.2,0-0.4-0.1-0.5-0.2c-0.1-0.1-0.2-0.3-0.2-0.4c0-0.2-0.1-0.4-0.1-0.6c-0.1-0.2-0.1-0.4-0.2-0.6v-0.1
	c0,0,0,0,0,0c-0.1-0.2-0.1-0.4-0.2-0.7c-0.1-0.2-0.1-0.4-0.1-0.7v-0.1c0-0.1,0-0.1,0.1-0.2c0-0.1,0.1-0.1,0.2-0.1c0.1,0,0.1,0,0.2,0
	c0,0,0.1,0.1,0.1,0.1l0.1,0.3c0,0.1,0.1,0.2,0.2,0.3c0.3,0.7,0.8,1.3,1.4,1.8c0.6,0.5,1.3,0.8,2.1,0.8c0.6,0,1.2-0.2,1.6-0.6
	c0.4-0.4,0.7-0.9,0.7-1.5c0-0.6-0.3-1.1-0.8-1.4c-0.6-0.3-1.1-0.6-1.8-0.9l-0.3-0.1l-0.3-0.1c-0.8-0.3-1.5-0.7-2.2-1.2
	c-0.7-0.5-1.1-1.3-1-2.2C97.1,34.9,97.4,34.1,98,33.5z"/>
<path class="st2" d="M115.3,41.2c0,0.6,0.1,1.2,0.3,1.7c0.3,0.6,0.9,0.9,1.6,0.8c0.1,0,0.1,0,0.2,0c0.1,0,0.1,0.1,0.1,0.2
	c0,0.1,0,0.2-0.1,0.2c-0.1,0-0.2,0.1-0.3,0.1h-0.1h-0.7l-0.7,0h-0.7h-0.7h-0.5l-0.5,0h-0.2h-0.1h-0.4h-0.4H112
	c-0.1,0-0.1-0.1-0.1-0.1c0,0,0-0.1,0-0.1c0,0,0.1-0.1,0.1-0.1l0.2-0.1l0.3-0.2c0.2-0.1,0.3-0.3,0.4-0.5c0.2-0.3,0.2-0.6,0.2-0.9
	c0-0.1,0-0.2,0-0.3s0-0.2,0-0.3V35c0,0,0-0.1,0-0.1v-0.1c0-0.4-0.1-0.7-0.3-1c-0.2-0.2-0.4-0.3-0.7-0.4l-0.3-0.1h-0.2
	c-0.1,0-0.3,0-0.4-0.1c-0.1,0-0.2-0.1-0.2-0.2c0-0.1,0-0.1,0.1-0.2c0-0.1,0.1-0.1,0.2-0.1h0.3h0.1h0.1l0.3,0h0.5h0.9l0.9-0.1
	l0.9-0.1h0.9c0.1,0,0.1,0,0.2,0c0,0,0.1,0.1,0.1,0.2c0,0.1,0,0.1-0.1,0.2c-0.1,0-0.1,0.1-0.2,0.1c-0.3,0-0.6,0.1-0.9,0.4
	c-0.1,0.3-0.2,0.6-0.2,0.9L115.3,41.2L115.3,41.2z"/>
<path class="st2" d="M124.5,34.3c1.3-1.2,3-1.8,4.7-1.7c1.6-0.1,3.2,0.4,4.6,1.4c1.2,0.9,1.9,2.4,1.9,4c0,1.7-0.6,3.3-1.8,4.5
	c-1.3,1.2-3,1.9-4.8,1.8c-1.7,0.1-3.3-0.5-4.6-1.5c-1.2-1-1.9-2.5-1.8-4.1C122.7,37,123.3,35.4,124.5,34.3z M124.9,38.7
	c0,0.3,0.1,0.5,0.1,0.8c0.2,1.1,0.7,2,1.4,2.9c0.7,0.9,1.8,1.4,3,1.3c1.2,0.1,2.4-0.4,3.1-1.4c0.6-0.9,1-2,1-3.1v-0.4
	c0-0.1,0-0.2,0-0.2s0-0.2,0-0.2c-0.1-1.3-0.6-2.5-1.4-3.5c-0.8-1-2.1-1.6-3.5-1.6h-0.1c-0.4,0-0.9,0.1-1.3,0.3
	c-0.4,0.2-0.8,0.4-1.1,0.7c-0.4,0.3-0.6,0.8-0.8,1.2c-0.2,0.5-0.3,0.9-0.4,1.4v0.6c0,0.2,0,0.4,0,0.6S124.9,38.5,124.9,38.7
	L124.9,38.7z"/>
<path class="st2" d="M149.3,39.6l0.2,0.2l0.2,0.2l0.1,0l0.1,0.1l0.3,0.3c0.1,0.1,0.1,0.1,0.2,0.1l0,0c0.1,0,0.1-0.1,0.1-0.1
	c0-0.1,0-0.1,0.1-0.2v-0.1c0-0.3,0-0.7,0-1s0-0.7,0-1s0-0.6,0-1s0-0.7,0-1c0-0.7-0.1-1.4-0.3-2c-0.3-0.7-1-1.1-1.8-1
	c-0.1,0-0.1,0-0.2-0.1c-0.1,0-0.1-0.1-0.1-0.1c0-0.1,0-0.1,0.1-0.1c0.1,0,0.2,0,0.2,0h0.4h0.5l0.4,0h0.4h0.5h0.5l0.5,0l0.5-0.1l0,0
	l0,0h0.1c0.1,0,0.2,0,0.3,0c0.1,0,0.1,0.1,0.1,0.2c0,0.1,0,0.1-0.1,0.2l-0.2,0.1c-0.3,0-0.7,0.2-0.8,0.5c-0.2,0.3-0.3,0.6-0.3,0.9
	c0,0.1,0,0.3,0,0.4s0,0.3,0,0.4l-0.1,5.2v0.7c0,0.2,0,0.4,0,0.6c0,0.2,0,0.4,0,0.6s0,0.4,0,0.6s0,0.4,0,0.6l0,0c0,0,0,0.1,0,0.1
	c0,0-0.1,0.1-0.1,0.1l0,0l0,0l-0.2,0c0,0-0.1-0.1-0.1-0.1l-8.2-8.3l0,0h-0.1l-0.1-0.1c0,0-0.1,0-0.1,0c-0.1,0-0.1,0-0.2,0.1
	c0,0.1,0,0.1-0.1,0.2v0V36v3.2c0,0.3,0,0.6,0,0.9v0.9v0.1c0,0.6,0.1,1.2,0.4,1.8c0.4,0.5,1,0.8,1.6,0.8h0.1c0.1,0,0.1,0,0.1,0.1
	c0,0,0.1,0.1,0.1,0.1c0,0.1,0,0.1-0.1,0.2c0,0-0.1,0.1-0.2,0.1h-0.5h-0.5h-0.6h-0.6c-0.2,0-0.5,0-0.7,0l-0.7,0.1h-0.2h-0.2
	c-0.1,0-0.1,0-0.2,0c-0.1,0-0.1-0.1-0.1-0.2c0,0,0-0.1,0.1-0.1l0.1-0.1l0.3-0.1c0.1,0,0.2-0.1,0.3-0.2c0.2-0.2,0.4-0.4,0.5-0.6
	c0.2-0.4,0.3-0.9,0.3-1.4l0.1-2v-3.6c0-0.6-0.1-1.2-0.4-1.8c-0.3-0.6-1-0.9-1.6-0.9c-0.1,0-0.1,0-0.2,0c-0.1,0-0.1-0.1-0.1-0.1
	c0-0.1,0-0.2,0.1-0.2c0.1,0,0.1-0.1,0.2-0.1h0.5h0.5h0.5l0.5,0h0.5h0.5c0.2,0,0.4,0.1,0.5,0.2c0.1,0.1,0.3,0.3,0.4,0.4l0.1,0.1
	l0.1,0.1l0.5,0.6l0.5,0.6L149.3,39.6z"/>
<path class="st2" d="M159.5,33.5c0.6-0.6,1.5-0.9,2.4-0.9c0.3,0,0.6,0,0.9,0.1c0.3,0.1,0.5,0.1,0.8,0.2l0.6,0.2
	c0.2,0.1,0.3,0.1,0.5,0.1c0.1,0,0.1,0,0.2,0l0.2-0.1l0,0l0,0l0.2-0.1c0.1,0,0.1,0,0.2,0c0.1,0,0.1,0,0.2,0.1c0,0.1,0,0.1,0,0.2v0.2
	c0,0.1,0,0.1,0,0.2c0,0.2,0,0.4,0,0.6c0,0.2,0,0.4,0.1,0.6c0,0.2,0.1,0.4,0.1,0.6c0,0.2,0,0.4,0,0.6v0.1c0,0.1,0,0.1-0.1,0.2
	c0,0-0.1,0.1-0.1,0.1c-0.1,0-0.1,0-0.2-0.1c0,0-0.1-0.1-0.1-0.2l0,0l0,0c-0.2-0.8-0.6-1.5-1.3-2c-0.6-0.6-1.4-0.9-2.3-0.9h-0.1
	c-0.5,0-0.9,0.2-1.3,0.5c-0.4,0.3-0.6,0.7-0.6,1.2c0,0.5,0.2,0.9,0.6,1.2c0.5,0.3,1,0.6,1.6,0.8l0.4,0.2l0.5,0.2
	c0.8,0.3,1.5,0.7,2.2,1.2c0.7,0.5,1.1,1.4,1,2.3c0,1-0.4,1.9-1.1,2.5c-0.7,0.7-1.7,1.1-2.7,1.1H162h-0.3l-0.5-0.1l-0.5-0.1l-0.2-0.1
	h-0.2l-0.4-0.4h-0.4c-0.2,0-0.4-0.1-0.5-0.2c-0.1-0.1-0.2-0.3-0.2-0.4c0-0.2-0.1-0.4-0.1-0.6c-0.1-0.2-0.1-0.4-0.2-0.6v-0.1
	c0,0,0,0,0,0c-0.1-0.2-0.1-0.4-0.2-0.7c-0.1-0.2-0.1-0.4-0.1-0.7v-0.1c0-0.1,0-0.1,0.1-0.2c0-0.1,0.1-0.1,0.2-0.1c0.1,0,0.1,0,0.2,0
	c0,0,0.1,0.1,0.1,0.1l0.1,0.3c0,0.1,0.1,0.2,0.2,0.3c0.3,0.7,0.8,1.3,1.4,1.8c0.6,0.5,1.3,0.8,2.1,0.8c0.6,0,1.2-0.2,1.6-0.6
	c0.4-0.4,0.7-0.9,0.7-1.5c0-0.6-0.3-1.1-0.8-1.4c-0.6-0.3-1.1-0.6-1.8-0.9l-0.3-0.1l-0.4-0.1c-0.8-0.3-1.5-0.7-2.2-1.2
	c-0.7-0.5-1.1-1.3-1-2.2C158.5,34.8,158.9,34,159.5,33.5z"/>
</svg>
